# xmcd
#
# Track frame offsets:
#	150
#	20415
#	40247
#	57517
#	76987
#	95837
#	115945
#	135492
#	156590
#	181087
#	201382
#	221605
#	240822
#	268150
#	290690
#
# Disc length: 4247 seconds
#
# Revision: 0
# Processed by: cddbd v1.4PL0 Copyright (c) Steve Scherf et al.
# Submitted via: EasyCDDAExtractor 4.6.0.1
#
DISCID=dc10950f
DTITLE=Alex Oriental Experience - Rockin' Fantasy and Fairytales And Promisese
DYEAR=1996
DGENRE=
TTITLE0=Roll on
TTITLE1=In my Dreams
TTITLE2=We are all gone
TTITLE3=Yo Yo
TTITLE4=She's waiting
TTITLE5=Rockin' Fantasy
TTITLE6=Few words
TTITLE7=Say: I'm free!
TTITLE8=So well...
TTITLE9=Show me
TTITLE10=Easy come
TTITLE11=Into the sun
TTITLE12=Message to you all
TTITLE13=Fairytales and promises
TTITLE14=Dancing on a Cloud
EXTD=
EXTT0=
EXTT1=
EXTT2=
EXTT3=
EXTT4=
EXTT5=
EXTT6=
EXTT7=
EXTT8=
EXTT9=
EXTT10=
EXTT11=
EXTT12=
EXTT13=
EXTT14=
PLAYORDER=
